<svg width="12" height="14" viewBox="0 0 12 14" fill="none" xmlns="http://www.w3.org/2000/svg">
<path d="M4.66667 12.6667H7.33333C7.33333 13.4 6.73333 14 6 14C5.26667 14 4.66667 13.4 4.66667 12.6667ZM12 11.3333V12H0V11.3333L1.33333 10V6C1.33333 3.93333 2.66667 2.13333 4.66667 1.53333V1.33333C4.66667 0.6 5.26667 0 6 0C6.73333 0 7.33333 0.6 7.33333 1.33333V1.53333C9.33333 2.13333 10.6667 3.93333 10.6667 6V10L12 11.3333ZM9.33333 6C9.33333 4.13333 7.86667 2.66667 6 2.66667C4.13333 2.66667 2.66667 4.13333 2.66667 6V10.6667H9.33333V6Z" fill="#6B7280"/>
</svg>
