<svg width="18" height="18" viewBox="0 0 18 18" fill="none" xmlns="http://www.w3.org/2000/svg">
<g clip-path="url(#clip0_148_931)">
<path d="M4.5 1.5C4.10218 1.5 3.72064 1.65804 3.43934 1.93934C3.15804 2.22064 3 2.60218 3 3V15C3 15.3978 3.15804 15.7794 3.43934 16.0607C3.72064 16.342 4.10218 16.5 4.5 16.5H13.5C13.8978 16.5 14.2794 16.342 14.5607 16.0607C14.842 15.7794 15 15.3978 15 15V6L10.5 1.5H4.5ZM4.5 3H9.75V6.75H13.5V15H4.5V3ZM6 9V10.5H12V9H6ZM6 12V13.5H9.75V12H6Z" fill="#3B82F6"/>
</g>
<defs>
<clipPath id="clip0_148_931">
<rect width="18" height="18" fill="white"/>
</clipPath>
</defs>
</svg>
