<svg width="14" height="14" viewBox="0 0 14 14" fill="none" xmlns="http://www.w3.org/2000/svg">
<path d="M4.66667 13.3333C4.48986 13.3333 4.32029 13.2631 4.19526 13.1381C4.07024 13.013 4 12.8435 4 12.6667V10.6667H1.33333C0.979711 10.6667 0.640573 10.5262 0.390524 10.2761C0.140476 10.0261 0 9.68695 0 9.33333V1.33333C0 0.979711 0.140476 0.640573 0.390524 0.390524C0.640573 0.140476 0.979711 0 1.33333 0H12C12.3536 0 12.6928 0.140476 12.9428 0.390524C13.1929 0.640573 13.3333 0.979711 13.3333 1.33333V9.33333C13.3333 9.68695 13.1929 10.0261 12.9428 10.2761C12.6928 10.5262 12.3536 10.6667 12 10.6667H7.93333L5.46667 13.14C5.33333 13.2667 5.16667 13.3333 5 13.3333H4.66667ZM5.33333 9.33333V11.3867L7.38667 9.33333H12V1.33333H1.33333V9.33333H5.33333Z" fill="#8E8E8E"/>
</svg>
