<svg width="19" height="16" viewBox="0 0 19 16" fill="none" xmlns="http://www.w3.org/2000/svg">
<path d="M0 16L9.27 0L18.54 16H0ZM1.72 15H16.82L9.27 2L1.72 15ZM9.704 13.434C9.82533 13.3127 9.886 13.168 9.886 13C9.886 12.832 9.82533 12.6873 9.704 12.566C9.58267 12.4447 9.438 12.3843 9.27 12.385C9.102 12.3857 8.95733 12.446 8.836 12.566C8.71467 12.686 8.654 12.8307 8.654 13C8.654 13.1693 8.71467 13.314 8.836 13.434C8.95733 13.554 9.102 13.6143 9.27 13.615C9.438 13.6157 9.58267 13.5553 9.704 13.434ZM8.77 11.384H9.77V6.384H8.77V11.384Z" fill="#FFA629"/>
</svg>
