<svg width="11" height="11" viewBox="0 0 11 11" fill="none" xmlns="http://www.w3.org/2000/svg">
<path d="M9.1 1.56667C8.60655 1.06996 8.01969 0.675806 7.37323 0.406923C6.72676 0.138041 6.03348 -0.000256533 5.33333 3.57226e-07C3.91885 3.57226e-07 2.56229 0.561904 1.5621 1.5621C0.561903 2.56229 0 3.91885 0 5.33333C0 6.74782 0.561903 8.10438 1.5621 9.10457C2.56229 10.1048 3.91885 10.6667 5.33333 10.6667C7.82 10.6667 9.89333 8.96667 10.4867 6.66667H9.1C8.82538 7.44635 8.31556 8.12158 7.6409 8.59923C6.96623 9.07687 6.15996 9.33336 5.33333 9.33333C4.27247 9.33333 3.25505 8.91191 2.50491 8.16176C1.75476 7.41162 1.33333 6.3942 1.33333 5.33333C1.33333 4.27247 1.75476 3.25505 2.50491 2.50491C3.25505 1.75476 4.27247 1.33333 5.33333 1.33333C6.44 1.33333 7.42667 1.79333 8.14667 2.52L6 4.66667H10.6667V3.57226e-07L9.1 1.56667Z" fill="#6B7280"/>
</svg>
